<?xml version="1.0" standalone="no"?>
<!DOCTYPE svg PUBLIC "-//W3C//DTD SVG 20010904//EN"
 "http://www.w3.org/TR/2001/REC-SVG-20010904/DTD/svg10.dtd">
<svg version="1.0" xmlns="http://www.w3.org/2000/svg"
 width="1920.000000pt" height="1080.000000pt" viewBox="0 0 1920.000000 1080.000000"
 preserveAspectRatio="xMidYMid meet">

<g transform="translate(0.000000,1080.000000) scale(0.100000,-0.100000)"
fill="#000000" stroke="none">
<path d="M0 8502 l0 -2299 31 5 c23 3 28 7 18 14 -10 7 -7 8 10 4 14 -3 56 4
95 15 156 43 439 89 649 105 145 11 101 -11 -61 -30 -271 -33 -506 -77 -675
-127 l-67 -20 0 -717 c1 -680 1 -716 18 -690 15 25 32 37 32 23 0 -3 -11 -28
-25 -55 l-25 -49 0 -1041 0 -1040 26 0 c15 0 41 -13 61 -30 18 -16 38 -30 44
-30 5 0 27 -11 48 -24 21 -14 56 -26 76 -28 53 -4 56 -24 4 -33 -28 -5 -44 -3
-49 5 -6 9 -12 9 -30 0 -21 -11 -21 -12 -3 -29 10 -10 21 -14 24 -9 6 9 35 2
56 -15 8 -6 10 -15 3 -26 -10 -20 20 -44 43 -35 8 3 27 6 42 7 21 2 29 8 31
25 2 12 -1 22 -6 22 -6 0 -10 -7 -10 -15 0 -9 -9 -15 -22 -15 -30 0 -45 11
-50 35 -2 13 -10 19 -22 17 -11 -2 -16 1 -13 10 2 7 13 12 23 11 10 -1 36 2
57 8 45 12 88 -3 46 -16 -23 -8 -23 -8 -4 -16 32 -12 45 -10 39 6 -9 22 2 19
54 -17 26 -18 55 -31 65 -30 13 3 17 -2 15 -14 -2 -11 4 -18 19 -19 34 -3 66
-35 52 -52 -7 -7 -9 -17 -5 -21 7 -7 11 -8 37 -11 5 0 9 -9 8 -18 -1 -10 5
-35 15 -55 23 -54 21 -86 -8 -99 -33 -15 -75 7 -154 80 -39 36 -80 64 -107 73
-43 14 -44 14 -34 -4 8 -15 7 -23 -8 -34 -15 -11 -15 -13 -3 -14 9 0 21 5 27
11 12 12 48 -35 38 -51 -3 -5 1 -12 9 -17 26 -15 109 -188 121 -254 8 -42 -2
-53 -36 -41 l-23 9 25 7 c22 6 23 7 7 20 -10 7 -15 16 -11 20 4 4 1 11 -7 16
-21 14 -27 12 -34 -7 -3 -10 -9 -24 -12 -30 -3 -8 1 -13 9 -13 9 0 17 -10 19
-22 3 -20 8 -23 45 -21 36 1 42 -1 48 -24 3 -14 1 -31 -5 -38 -8 -9 -6 -14 5
-19 18 -6 22 -125 5 -157 -23 -42 -69 -10 -114 79 l-17 32 36 0 c25 0 35 4 35
15 0 12 -8 14 -38 9 l-37 -6 -35 73 c-51 107 -104 162 -125 129 -3 -5 -2 -17
3 -27 12 -24 32 -86 32 -101 0 -7 -7 -12 -15 -12 -8 0 -15 -5 -15 -10 0 -6 -6
-10 -13 -9 -24 3 -38 -1 -32 -10 3 -5 21 -7 40 -4 28 4 35 2 35 -10 0 -9 -4
-19 -10 -22 -19 -12 -10 -26 13 -19 12 3 19 3 15 -1 -4 -5 -3 -14 3 -22 7 -7
13 -40 15 -73 4 -51 1 -61 -15 -70 -11 -5 -28 -7 -38 -3 -17 6 -17 6 -1 -10 9
-9 26 -17 37 -17 17 0 21 -6 21 -30 0 -17 -7 -33 -17 -39 -10 -5 -15 -13 -11
-17 9 -9 -10 -34 -26 -34 -14 1 -41 37 -51 69 -6 20 -4 23 9 18 9 -4 16 -2 16
3 0 6 -9 10 -19 10 -18 0 -31 29 -36 80 0 9 -4 20 -8 26 -7 12 1 24 15 24 4 0
8 -6 8 -14 0 -8 6 -14 12 -13 44 1 68 -5 68 -17 0 -8 6 -16 13 -19 8 -3 13 3
13 14 0 11 -4 19 -7 19 -4 0 -20 5 -34 10 -22 8 -25 13 -16 24 9 11 9 16 -1
22 -20 13 -46 15 -53 4 -12 -19 -32 -10 -31 12 1 13 -7 36 -18 51 -18 24 -18
29 -6 37 13 8 12 10 -2 10 -9 0 -19 9 -23 20 -5 16 -13 19 -43 15 -20 -2 -48
-7 -61 -11 -20 -6 -23 -4 -18 9 4 10 -1 24 -12 34 -10 10 -21 27 -23 38 -3 11
-5 -11 -6 -48 -1 -54 3 -69 16 -74 8 -4 18 -1 20 5 2 7 10 12 19 12 8 0 21 7
29 15 12 12 19 12 34 2 22 -13 27 -45 8 -44 -36 1 -59 -4 -54 -12 3 -5 -1 -11
-9 -15 -9 -3 -15 -19 -15 -41 0 -29 3 -36 18 -33 10 2 17 12 17 25 0 12 11 31
24 42 46 40 56 18 16 -35 -33 -43 -32 -56 2 -48 l26 7 -6 -69 c-3 -38 -11 -80
-17 -94 -10 -24 -10 -24 -6 -2 4 23 4 23 -15 6 -14 -12 -16 -21 -8 -30 7 -8 7
-14 -2 -19 -19 -12 -48 28 -74 101 l-25 69 0 -782 0 -783 9600 0 9600 0 0
3110 c0 1711 -2 3110 -5 3110 -2 0 -29 -16 -59 -35 -157 -100 -456 -197 -771
-249 -101 -17 -366 -46 -420 -46 -19 0 -34 -3 -33 -7 1 -5 -10 -44 -24 -88
-47 -143 -58 -282 -37 -448 12 -89 12 -89 38 -83 14 4 62 9 106 12 67 5 91 3
145 -16 35 -12 76 -30 91 -41 l27 -19 8 32 c4 18 7 92 7 163 -1 151 -24 278
-72 399 -21 53 -28 83 -22 89 12 12 37 -43 74 -160 39 -123 51 -228 44 -400
l-6 -153 29 -48 c29 -45 54 -138 45 -164 -2 -7 -6 -51 -9 -97 -6 -101 -18
-120 -36 -56 -13 46 -40 71 -66 61 -10 -4 -14 -22 -14 -60 0 -50 -12 -77 -28
-62 -3 4 -8 33 -10 65 l-4 59 -57 6 c-31 3 -110 8 -177 12 l-121 7 -7 -28 c-8
-33 -5 -256 3 -251 3 2 20 -14 36 -35 17 -21 38 -38 48 -39 10 0 17 -6 15 -14
-2 -8 2 -15 7 -14 6 0 9 4 8 9 -2 4 4 6 12 3 8 -3 13 -10 12 -14 -1 -4 3 -8 8
-8 6 0 9 4 8 8 -4 15 50 6 55 -9 3 -9 -2 -11 -17 -6 -13 4 -21 2 -21 -6 0 -8
-13 -10 -40 -6 -36 5 -40 3 -40 -17 0 -13 8 -29 17 -38 21 -17 75 -42 86 -40
4 1 7 -2 7 -8 0 -13 -45 -23 -73 -16 -42 10 -77 45 -77 76 0 38 -23 54 -75 52
-39 -2 -45 1 -45 18 0 16 7 20 30 20 17 0 30 -5 30 -12 0 -7 5 -5 11 5 9 15 7
23 -10 40 -43 47 -53 90 -46 215 l6 117 -43 21 c-66 31 -89 79 -86 179 l3 80
51 5 c36 4 61 13 87 35 l37 30 -11 65 c-20 110 -15 312 10 413 11 48 29 104
39 125 l18 37 -211 1 c-367 1 -612 56 -758 167 -39 31 -55 37 -95 37 -196 0
-377 -88 -488 -236 -29 -38 -157 -189 -285 -335 -129 -146 -407 -462 -619
-703 -212 -241 -402 -465 -423 -499 -45 -73 -93 -220 -112 -337 -7 -47 -13
-71 -14 -55 -3 108 65 361 123 458 19 32 113 146 208 255 885 1005 1062 1207
1117 1277 34 44 81 95 104 114 96 77 256 130 400 131 56 0 57 -1 57 -28 0 -22
11 -36 48 -64 141 -108 396 -161 772 -161 574 1 1105 113 1410 298 55 33 59
38 49 58 -33 64 -119 118 -163 101 -11 -4 -16 0 -16 14 0 11 -3 28 -7 38 -5
15 0 16 51 12 63 -5 102 -33 136 -98 19 -34 19 13 20 2218 l0 2252 -9600 0
-9600 0 0 -2298z m17985 -146 c44 -7 118 -14 165 -15 220 -2 385 -88 527 -276
86 -114 123 -184 122 -235 l0 -35 -15 40 c-8 22 -27 56 -43 75 -15 19 -40 54
-55 78 -36 58 -133 162 -142 154 -4 -4 -4 -2 0 5 9 16 -59 66 -140 104 -55 26
-193 64 -202 55 -2 -2 19 -12 47 -21 28 -9 51 -19 51 -22 0 -3 -8 -2 -17 2
-10 3 -85 11 -168 16 -82 5 -177 12 -211 15 -96 10 -152 -27 -190 -124 l-14
-37 6 50 c9 79 42 136 94 163 52 26 77 27 185 8z m-16535 -84 c0 -13 -12 -22
-22 -16 -10 6 -1 24 13 24 5 0 9 -4 9 -8z m574 -16 c48 -8 95 -32 96 -50 0 -5
-9 -1 -19 8 -13 12 -29 16 -53 12 -32 -5 -108 19 -108 35 0 10 24 17 30 9 3
-4 27 -10 54 -14z m-674 -24 c0 -4 -17 -12 -37 -19 l-38 -11 24 19 c23 19 51
25 51 11z m16950 -17 c66 -17 183 -75 225 -110 23 -20 8 -15 -62 20 -51 26
-128 59 -170 75 -84 31 -81 39 7 15z m-16115 -15 c-3 -5 -11 -10 -16 -10 -6 0
-7 5 -4 10 3 6 11 10 16 10 6 0 7 -4 4 -10z m-905 -25 c0 -8 -9 -15 -20 -15
-20 0 -26 11 -13 23 12 13 33 7 33 -8z m1160 -45 c0 -5 -2 -10 -4 -10 -3 0 -8
5 -11 10 -3 6 -1 10 4 10 6 0 11 -4 11 -10z m15223 -41 c34 -9 37 -13 37 -44
0 -19 -2 -35 -4 -35 -1 0 -17 5 -35 11 -26 9 -41 8 -76 -6 -49 -18 -80 -55
-101 -118 l-14 -42 5 55 c9 77 48 144 99 170 48 23 41 23 89 9z m166 -344 c30
-14 106 -63 170 -108 64 -46 130 -91 147 -101 31 -19 31 -19 12 -38 -11 -11
-16 -24 -11 -28 4 -5 43 -23 86 -41 66 -27 80 -30 88 -18 16 26 9 34 -52 58
-33 13 -59 25 -57 26 2 2 28 -3 58 -11 92 -25 208 -2 291 57 l29 20 0 -28 c0
-20 -10 -36 -33 -54 -18 -14 -46 -50 -62 -80 -27 -49 -30 -62 -30 -149 0 -80
4 -103 24 -143 13 -27 20 -52 15 -56 -55 -49 -173 -125 -193 -123 -35 3 -160
-68 -167 -96 -9 -31 20 -72 51 -72 13 0 53 16 89 35 59 33 82 57 72 73 -3 6
164 142 184 149 3 1 13 -4 24 -12 17 -13 17 -18 6 -47 -24 -60 -100 -166 -148
-206 -117 -98 -248 -143 -422 -144 -180 -1 -291 34 -383 121 -30 28 -56 48
-60 45 -3 -3 -40 -15 -83 -26 -43 -11 -103 -32 -132 -46 -97 -47 -196 -185
-223 -310 -10 -49 -14 -54 -60 -77 -58 -30 -115 -79 -141 -120 l-18 -30 0 33
c0 65 59 134 155 182 28 14 52 26 54 27 2 1 7 23 12 49 20 108 107 244 187
295 26 16 85 42 132 56 47 14 86 27 87 27 1 1 -9 33 -22 71 -42 124 -42 153 4
305 23 74 45 144 50 155 5 11 16 56 25 100 24 116 45 182 78 248 28 56 29 57
71 57 24 0 65 -11 96 -25z m-370 -195 c-26 -26 -55 -74 -71 -120 -6 -18 -6
-12 -3 20 7 53 38 126 68 158 l22 24 5 -29 c4 -21 0 -34 -21 -53z m1419 -133
c12 -32 22 -72 21 -90 0 -32 -1 -31 -13 10 -18 57 -52 109 -90 138 -28 21 -32
30 -28 57 l5 31 42 -44 c24 -26 51 -69 63 -102z m-1394 78 c-9 -14 -20 -40
-24 -58 -7 -27 -8 -28 -9 -7 -1 23 32 90 44 90 3 0 -2 -11 -11 -25z m1190 -24
c-60 -10 -100 -43 -124 -104 -17 -43 -19 -46 -14 -17 11 70 80 131 143 129
l36 -2 -41 -6z m-17001 -165 c44 -18 86 -69 93 -114 l6 -37 60 0 c59 0 60 1
79 36 42 83 122 117 183 80 51 -32 76 -81 76 -148 0 -138 -115 -242 -208 -188
-40 24 -74 86 -77 143 -2 39 -7 49 -29 60 -30 15 -86 7 -86 -11 0 -7 -5 -28
-10 -48 -28 -101 -165 -155 -254 -100 -37 23 -76 77 -76 104 0 19 -17 24 -123
32 -48 4 -75 11 -71 17 4 6 38 7 95 3 83 -7 89 -6 89 12 0 10 12 42 26 71 44
88 139 125 227 88z m17103 -465 c103 -48 167 -129 200 -254 21 -80 16 -112 -7
-41 -24 78 -72 149 -127 191 -54 41 -156 73 -232 73 l-59 0 -3 -307 -3 -308
-26 -50 c-37 -69 -93 -123 -158 -153 -46 -21 -78 -27 -200 -34 -229 -14 -356
-8 -414 21 -60 29 -108 78 -139 139 -21 44 -23 61 -26 255 l-3 207 47 -32
c159 -107 405 -117 592 -23 130 66 233 167 303 299 l32 59 80 -6 c58 -5 97
-15 143 -36z m-16657 -397 c-14 -18 -24 -11 -15 11 3 9 11 13 16 10 8 -5 7
-11 -1 -21z m281 1 c0 -8 -4 -15 -9 -15 -13 0 -22 16 -14 24 11 11 23 6 23 -9z
m125 -5 c17 -7 14 -9 -13 -9 -20 -1 -31 3 -27 9 7 12 13 12 40 0z m5 -40 c0
-5 -7 -10 -15 -10 -8 0 -15 5 -15 10 0 6 7 10 15 10 8 0 15 -4 15 -10z m96
-13 c2 -13 -2 -17 -13 -13 -8 3 -19 6 -24 6 -4 0 -6 7 -2 15 7 21 35 15 39 -8z
m74 13 c0 -5 -4 -10 -9 -10 -5 0 -18 -3 -28 -7 -16 -6 -16 -5 -4 10 15 19 41
23 41 7z m-1930 -7 c0 -5 -7 -17 -15 -27 -12 -16 -19 -17 -37 -8 -18 8 -19 11
-5 11 9 1 17 8 17 16 0 8 9 15 20 15 11 0 20 -3 20 -7z m2040 -24 c4 -5 13 -9
21 -7 9 2 13 -4 11 -14 -2 -13 4 -18 23 -18 14 0 25 5 25 11 0 8 5 7 16 -2 14
-12 14 -14 -2 -26 -17 -12 -53 -9 -64 7 -3 4 -25 10 -49 14 -56 9 -60 12 -54
37 5 17 11 20 36 15 17 -4 34 -11 37 -17z m-2345 1 c3 -5 1 -10 -4 -10 -6 0
-11 5 -11 10 0 6 2 10 4 10 3 0 8 -4 11 -10z m510 -10 c3 -5 2 -10 -4 -10 -5
0 -13 5 -16 10 -3 6 -2 10 4 10 5 0 13 -4 16 -10z m2045 -69 c0 -12 -59 -23
-74 -14 -6 5 1 10 19 14 45 10 55 10 55 0z m147 -76 c2 -5 -10 -9 -27 -9 -47
2 -52 3 -46 13 8 12 68 9 73 -4z m89 -46 c36 -22 44 -39 19 -39 -8 0 -20 9
-27 20 -7 11 -18 20 -25 20 -7 0 -13 5 -13 10 0 15 9 13 46 -11z m569 -409 c3
-5 1 -10 -4 -10 -6 0 -11 5 -11 10 0 6 2 10 4 10 3 0 8 -4 11 -10z m55 -60 c0
-5 -7 -10 -15 -10 -8 0 -15 5 -15 10 0 6 7 10 15 10 8 0 15 -4 15 -10z m45
-30 c3 -5 -1 -10 -9 -10 -9 0 -16 5 -16 10 0 6 4 10 9 10 6 0 13 -4 16 -10z
m30 -50 c-3 -5 -11 -10 -16 -10 -6 0 -7 5 -4 10 3 6 11 10 16 10 6 0 7 -4 4
-10z m108 -101 c-10 -4 -24 -1 -33 7 -13 13 -13 16 0 24 10 6 20 4 33 -8 18
-16 18 -17 0 -23z m111 -94 c6 -10 22 -29 36 -41 l25 -23 -25 6 c-34 8 -80 52
-73 70 7 18 23 12 37 -12z m106 -136 c0 -18 -2 -19 -15 -9 -8 7 -15 16 -15 21
0 5 7 9 15 9 9 0 15 -9 15 -21z m53 -41 c8 -13 31 -41 51 -63 25 -27 32 -41
23 -47 -6 -4 -15 -4 -18 0 -48 51 -97 117 -93 124 9 14 21 9 37 -14z m13023
-117 c56 -34 68 -119 24 -166 -18 -19 -18 -25 -6 -65 15 -52 23 -55 182 -63
59 -3 110 -10 122 -18 28 -18 35 -58 28 -156 -3 -43 -5 -111 -6 -150 0 -57 -3
-73 -14 -73 -12 0 -13 -6 -4 -31 8 -24 8 -37 0 -50 -7 -12 -8 -20 -2 -24 6 -3
10 -11 10 -16 0 -6 -3 -8 -7 -6 -5 3 -9 -11 -11 -31 -5 -69 -20 -75 -158 -68
l-122 7 -5 -28 c-7 -39 -2 -43 49 -43 51 0 100 -21 108 -47 3 -10 7 -40 8 -66
1 -34 4 -44 10 -33 12 22 33 20 35 -2 1 -16 -9 -18 -85 -20 -48 -1 -213 7
-367 17 -154 11 -283 17 -287 13 -4 -4 -8 -27 -10 -52 -2 -34 -7 -46 -22 -48
-10 -2 -22 0 -27 5 -10 10 -1 123 11 143 5 8 87 6 320 -10 402 -26 370 -27
370 10 0 38 7 37 -270 50 -237 12 -269 20 -240 55 11 13 24 15 60 10 39 -5 48
-4 54 11 3 9 4 25 1 34 -4 14 -24 18 -116 24 -61 3 -120 11 -131 17 -38 20
-40 52 -23 304 9 132 18 249 20 260 3 11 17 28 31 39 23 16 37 17 119 11 72
-5 95 -10 100 -23 10 -26 -16 -32 -100 -26 -62 5 -83 3 -92 -7 -7 -8 -18 -113
-27 -253 -14 -198 -14 -242 -3 -253 8 -8 52 -15 118 -19 l106 -7 6 83 c8 97
29 146 76 177 41 27 84 29 130 5 64 -32 76 -60 76 -180 l0 -107 98 -6 c58 -4
104 -12 114 -20 10 -8 14 -9 10 -2 -4 6 1 18 10 25 15 11 18 29 18 118 0 58 4
171 9 251 8 131 7 147 -8 152 -9 4 -70 9 -136 13 l-120 7 0 -30 c0 -17 -9 -41
-19 -54 -17 -21 -28 -24 -86 -24 -61 0 -69 2 -92 29 -21 25 -24 35 -18 75 3
25 15 69 26 98 19 47 19 53 5 82 -17 32 -21 88 -8 109 16 25 77 62 101 62 14
0 40 -9 57 -19z m-14306 -193 c0 -7 -5 -110 -10 -228 -26 -540 -98 -1072 -192
-1405 -35 -124 -33 -119 -47 -111 -6 4 -5 23 5 54 106 339 194 960 210 1487 6
202 8 215 24 215 5 0 10 -6 10 -12z m1207 -21 c3 -20 2 -21 -13 -5 -9 9 -13
21 -9 28 4 6 10 9 13 5 3 -3 7 -16 9 -28z m13655 -109 c4 -12 -14 -38 -26 -38
-8 0 -7 35 1 43 10 11 21 8 25 -5z m173 -7 c3 -5 1 -12 -4 -15 -5 -3 -11 1
-15 9 -6 16 9 21 19 6z m-13717 -56 c13 -29 5 -33 -14 -7 -15 20 -18 32 -6 32
5 0 14 -11 20 -25z m27 -54 c3 -5 1 -12 -5 -16 -5 -3 -10 1 -10 9 0 18 6 21
15 7z m15 -31 c0 -5 -5 -10 -11 -10 -5 0 -7 5 -4 10 3 6 8 10 11 10 2 0 4 -4
4 -10z m13520 -31 c0 -5 -4 -9 -10 -9 -5 0 -10 7 -10 16 0 8 5 12 10 9 6 -3
10 -10 10 -16z m47 -36 c-12 -11 -37 6 -31 21 5 14 8 14 21 0 9 -8 13 -18 10
-21z m-13457 -196 c0 -5 -4 -5 -10 -2 -5 3 -10 14 -10 23 0 15 2 15 10 2 5 -8
10 -19 10 -23z m13550 14 c0 -5 -11 -11 -25 -13 -29 -6 -33 6 -8 21 18 10 33
6 33 -8z m-13533 -103 c-3 -8 -6 -5 -6 6 -1 11 2 17 5 13 3 -3 4 -12 1 -19z
m13286 -148 c-9 -10 -19 22 -17 53 3 47 6 47 14 -3 4 -25 6 -47 3 -50z m-1299
38 c-35 -114 -176 -349 -265 -444 l-51 -53 68 -205 c40 -120 72 -200 76 -193
4 7 8 -3 8 -23 0 -19 -4 -41 -9 -49 -9 -14 71 -266 169 -526 54 -145 57 -155
36 -155 -21 0 -192 493 -341 986 l-49 161 -106 6 c-58 4 -132 14 -164 23 -86
23 -219 94 -204 109 3 3 35 -10 70 -29 36 -20 98 -44 139 -55 92 -23 245 -36
254 -21 3 5 -11 26 -32 45 -90 84 -269 183 -443 246 -50 17 -90 36 -90 40 0
14 12 11 107 -22 176 -62 357 -164 459 -261 l52 -49 46 51 c66 75 119 158 193
308 36 72 70 132 75 132 5 0 6 -10 2 -22z m1128 -101 c-12 -13 -22 -29 -22
-37 0 -7 -3 -11 -6 -7 -3 3 -3 19 1 36 5 23 12 31 28 31 l20 0 -21 -23z m10
-19 c-7 -7 -12 -8 -12 -2 0 14 12 26 19 19 2 -3 -1 -11 -7 -17z m-1195 -135
c-3 -10 -5 -2 -5 17 0 19 2 27 5 18 2 -10 2 -26 0 -35z m-36 -249 c-33 -142
-60 -293 -62 -339 0 -16 -3 -24 -6 -16 -8 20 15 178 49 336 17 77 33 154 36
170 7 30 7 30 10 4 2 -15 -10 -85 -27 -155z m-12782 60 c-15 -18 -22 -13 -13
10 3 9 10 13 16 10 5 -3 4 -12 -3 -20z m41 6 c0 -11 -4 -20 -9 -20 -5 0 -7 9
-4 20 3 11 7 20 9 20 2 0 4 -9 4 -20z m600 -1 c0 -5 -4 -9 -10 -9 -5 0 -10 7
-10 16 0 8 5 12 10 9 6 -3 10 -10 10 -16z m-680 -49 c-4 -3 -10 -12 -13 -20
-3 -8 -6 0 -6 18 -1 28 1 31 13 20 8 -7 10 -15 6 -18z m130 21 c0 -5 -7 -11
-15 -15 -9 -3 -15 0 -15 9 0 8 7 15 15 15 8 0 15 -4 15 -9z m75 -151 c3 -5 -1
-10 -10 -10 -9 0 -13 5 -10 10 3 6 8 10 10 10 2 0 7 -4 10 -10z m522 4 c-3 -3
-12 -4 -19 -1 -8 3 -5 6 6 6 11 1 17 -2 13 -5z m-277 -40 c0 -8 -4 -12 -10 -9
-5 3 -10 10 -10 16 0 5 5 9 10 9 6 0 10 -7 10 -16z m375 -44 c3 -5 -1 -10 -9
-10 -8 0 -24 -10 -36 -22 l-20 -22 0 22 c0 13 6 22 15 22 8 0 15 5 15 10 0 6
6 10 14 10 8 0 18 -4 21 -10z m-654 -39 c-7 -5 -11 -13 -7 -19 3 -6 2 -13 -4
-17 -5 -3 -10 -2 -10 4 0 5 -3 16 -6 24 -3 10 1 17 13 19 23 6 31 -1 14 -11z
m-181 -1 c0 -5 -4 -10 -10 -10 -5 0 -10 5 -10 10 0 6 5 10 10 10 6 0 10 -4 10
-10z m425 -11 c11 -17 0 -20 -21 -4 -17 13 -17 14 -2 15 9 0 20 -5 23 -11z
m198 5 c-7 -3 -9 -12 -6 -20 3 -8 0 -14 -6 -14 -6 0 -11 9 -11 20 0 13 6 20
18 19 9 0 12 -3 5 -5z m-533 -14 c0 -5 -10 -10 -22 -10 -19 0 -20 2 -8 10 19
13 30 13 30 0z m385 0 c-3 -5 -13 -10 -21 -10 -8 0 -14 5 -14 10 0 6 9 10 21
10 11 0 17 -4 14 -10z m54 -82 c-24 -9 -45 3 -35 21 5 7 15 7 32 -1 l26 -12
-23 -8z m86 -9 c-10 -15 -25 -10 -19 6 4 8 10 12 15 9 5 -3 7 -10 4 -15z m185
-9 c0 -5 -5 -10 -11 -10 -5 0 -7 5 -4 10 3 6 8 10 11 10 2 0 4 -4 4 -10z
m-550 -10 c0 -5 -4 -10 -10 -10 -5 0 -10 5 -10 10 0 6 5 10 10 10 6 0 10 -4
10 -10z m285 -21 c-3 -4 -12 -6 -20 -3 -8 4 -13 10 -10 15 3 4 12 6 20 3 8 -4
13 -10 10 -15z m225 11 c0 -5 -4 -10 -10 -10 -5 0 -10 5 -10 10 0 6 5 10 10
10 6 0 10 -4 10 -10z m-510 -20 c0 -5 -4 -10 -10 -10 -5 0 -10 5 -10 10 0 6 5
10 10 10 6 0 10 -4 10 -10z m-66 -26 c-18 -26 -35 -24 -27 4 2 10 13 18 23 19
18 2 19 0 4 -23z m393 20 c-3 -3 -12 -4 -19 -1 -8 3 -5 6 6 6 11 1 17 -2 13
-5z m123 -3 c0 -11 -26 -22 -34 -14 -12 12 -5 23 14 23 11 0 20 -4 20 -9z m80
-5 c0 -3 -4 -8 -10 -11 -5 -3 -10 -1 -10 4 0 6 5 11 10 11 6 0 10 -2 10 -4z
m-640 -16 c0 -5 -7 -10 -16 -10 -8 0 -12 5 -9 10 3 6 10 10 16 10 5 0 9 -4 9
-10z m510 -21 c0 -5 -7 -9 -15 -9 -15 0 -20 12 -9 23 8 8 24 -1 24 -14z m117
-5 c-3 -3 -12 -4 -19 -1 -8 3 -5 6 6 6 11 1 17 -2 13 -5z m-247 -19 c12 -15 5
-39 -9 -30 -12 7 -21 45 -11 45 4 0 13 -7 20 -15z m140 -15 c0 -5 -5 -12 -11
-16 -14 -8 -33 11 -25 25 7 11 36 4 36 -9z m-230 0 c0 -5 -9 -10 -20 -10 -11
0 -20 5 -20 10 0 6 9 10 20 10 11 0 20 -4 20 -10z m-223 -38 c-14 -17 -22 0
-12 26 5 14 7 14 15 2 5 -9 4 -20 -3 -28z m64 -2 c5 0 9 -4 9 -9 0 -4 -11 -6
-25 -3 -14 2 -25 9 -25 14 0 6 7 7 16 4 9 -3 20 -6 25 -6z m184 -9 c3 -5 0
-13 -6 -16 -6 -4 -14 -17 -19 -29 l-9 -21 0 23 c-1 14 -7 22 -18 22 -14 0 -12
4 7 14 31 17 37 18 45 7z m-203 -28 c5 -20 0 -43 -10 -43 -4 0 -8 14 -9 30 -2
32 12 41 19 13z m-282 -23 c0 -5 -4 -10 -10 -10 -5 0 -10 5 -10 10 0 6 5 10
10 10 6 0 10 -4 10 -10z m670 -10 c0 -5 -4 -10 -10 -10 -5 0 -10 5 -10 10 0 6
5 10 10 10 6 0 10 -4 10 -10z m-513 -16 c-3 -3 -12 -4 -19 -1 -8 3 -5 6 6 6
11 1 17 -2 13 -5z m293 -14 c13 -8 13 -10 -2 -10 -9 0 -20 5 -23 10 -8 13 5
13 25 0z m310 -21 c0 -5 -6 -9 -14 -9 -8 0 -14 9 -13 19 1 15 4 17 14 9 7 -6
13 -14 13 -19z m-640 11 c0 -5 -12 -10 -26 -10 -14 0 -23 4 -19 10 3 6 15 10
26 10 10 0 19 -4 19 -10z m470 6 c0 -11 -19 -15 -25 -6 -3 5 1 10 9 10 9 0 16
-2 16 -4z m70 -6 c0 -5 -9 -10 -20 -10 -11 0 -20 5 -20 10 0 6 9 10 20 10 11
0 20 -4 20 -10z m-410 -35 c0 -8 -7 -15 -15 -15 -16 0 -20 12 -8 23 11 12 23
8 23 -8z m64 -11 c4 -9 4 -19 1 -22 -3 -3 -5 0 -5 7 0 9 -9 11 -27 7 -27 -6
-27 -6 -9 9 25 19 32 19 40 -1z m231 6 c-3 -5 -12 -10 -20 -10 -8 0 -18 -8
-24 -17 -5 -10 -12 -15 -16 -11 -10 10 27 48 48 48 10 0 15 -4 12 -10z m205 0
c0 -5 -9 -10 -20 -10 -11 0 -20 5 -20 10 0 6 9 10 20 10 11 0 20 -4 20 -10z
m-625 -16 c-9 -9 -19 -13 -23 -10 -3 4 0 11 8 16 24 15 33 11 15 -6z m-85 -30
c0 -8 -4 -14 -9 -14 -11 0 -22 26 -14 34 9 9 23 -3 23 -20z m590 -4 c0 -5 -4
-10 -10 -10 -5 0 -10 5 -10 10 0 6 5 10 10 10 6 0 10 -4 10 -10z m-520 -10 c0
-5 -4 -10 -10 -10 -5 0 -10 5 -10 10 0 6 5 10 10 10 6 0 10 -4 10 -10z m52
-15 c-2 -12 1 -16 11 -12 8 3 23 0 33 -7 24 -18 2 -29 -30 -15 -20 9 -29 9
-41 -1 -9 -7 -15 -8 -15 -2 0 6 6 12 13 15 9 3 9 7 -1 19 -10 13 -10 17 0 21
21 9 33 1 30 -18z m138 13 c0 -7 -12 -21 -25 -31 -24 -17 -25 -17 -25 1 0 21
18 42 37 42 7 0 13 -6 13 -12z m210 -19 c-7 -11 -9 -23 -6 -27 3 -3 6 0 6 6 0
7 5 12 11 12 6 0 8 -7 5 -16 -5 -13 -1 -15 19 -10 22 6 25 3 25 -18 0 -23 -3
-24 -35 -19 -33 5 -35 4 -35 -21 0 -33 29 -35 72 -5 22 16 29 28 25 45 -3 15
1 24 9 24 31 0 20 -41 -24 -86 -13 -13 -20 -29 -17 -34 3 -6 1 -10 -6 -10 -7
0 -10 -3 -7 -6 3 -3 14 -1 25 4 67 35 73 36 89 20 23 -23 2 -89 -26 -85 -28 4
-37 17 -20 28 10 6 5 7 -16 3 -17 -3 -41 -1 -54 6 -28 15 -38 5 -17 -18 21
-23 21 -36 2 -52 -8 -7 -12 -16 -10 -21 3 -4 -6 -16 -21 -25 l-26 -18 22 -8
c13 -5 20 -14 17 -22 -3 -7 0 -22 8 -32 7 -11 13 -22 14 -26 1 -10 8 -11 24
-5 9 3 9 8 -2 21 -8 9 -11 20 -7 24 4 4 13 0 19 -9 7 -9 18 -14 25 -12 6 3 12
0 12 -6 0 -6 -7 -11 -15 -11 -13 0 -13 -3 -3 -21 11 -17 10 -22 -4 -30 -10 -6
-18 -15 -18 -21 0 -6 7 -5 17 3 15 13 16 10 9 -31 -4 -24 -12 -50 -18 -57 -7
-9 -7 -13 1 -13 15 0 15 -132 -1 -148 -9 -9 -9 -12 0 -12 19 0 14 -188 -7
-313 -20 -116 -43 -166 -66 -147 -14 12 -21 44 -31 154 -6 61 -4 68 10 63 10
-4 16 -1 16 9 0 8 -4 13 -9 10 -5 -4 -11 -1 -13 5 -3 8 -14 6 -37 -6 -24 -12
-36 -14 -44 -6 -8 8 -7 11 3 11 7 0 10 3 7 6 -4 4 -13 1 -22 -6 -11 -9 -22 -9
-46 -1 -61 21 -69 -19 -9 -43 22 -9 40 -21 40 -28 1 -8 8 -4 18 8 17 20 53 44
68 44 9 0 -5 -143 -22 -220 -20 -91 -59 -167 -95 -186 -16 -8 -34 -12 -40 -8
-13 7 -3 122 13 164 6 14 10 48 10 75 0 28 4 58 9 67 6 10 5 19 -1 23 -5 3
-10 15 -10 26 0 38 -20 18 -36 -37 -12 -41 -20 -54 -31 -50 -9 4 -13 1 -10 -6
2 -7 10 -12 16 -11 6 2 11 2 11 0 0 -37 -56 -303 -72 -338 -18 -44 -24 -50
-47 -47 -20 2 -28 11 -38 43 -14 48 -15 234 -2 364 6 51 7 96 4 100 -4 3 -15
-4 -25 -16 -16 -20 -19 -21 -31 -7 -10 13 -10 17 2 25 10 6 1 9 -28 9 -23 0
-49 3 -59 7 -12 4 -15 3 -10 -5 5 -8 -2 -12 -20 -12 -15 0 -25 -3 -22 -6 4 -3
27 -6 52 -6 26 0 44 -4 40 -9 -3 -5 2 -9 10 -9 9 0 16 -4 16 -10 0 -5 7 -10
16 -10 11 0 14 -6 8 -22 -4 -13 -17 -70 -29 -128 -20 -100 -23 -105 -46 -103
-23 3 -23 2 -4 -9 28 -16 28 -14 20 -37 -3 -12 -12 -21 -20 -21 -7 0 -16 -7
-19 -16 -4 -12 -2 -15 9 -10 22 8 19 -17 -6 -48 -23 -30 -63 -37 -52 -9 5 12
2 15 -10 10 -12 -5 -18 5 -26 44 -12 53 -13 241 -2 349 6 62 7 65 34 66 41 2
45 13 9 26 -22 9 -32 19 -34 38 -2 20 -11 10 -46 -58 -42 -79 -83 -122 -120
-122 -19 0 -27 31 -11 40 11 7 10 10 -4 16 -14 5 -17 20 -17 84 0 44 5 82 10
85 6 3 10 1 10 -6 0 -8 4 -8 15 1 21 17 19 30 -5 30 -16 0 -19 5 -16 24 8 42
25 66 44 59 14 -5 15 -3 5 8 -31 33 0 103 49 113 38 8 75 32 64 43 -4 4 -15 2
-26 -5 -13 -8 -21 -8 -26 -1 -8 13 -8 12 44 36 42 19 43 21 26 38 -24 23 -27
85 -5 85 10 0 33 -59 27 -69 -3 -5 2 -12 11 -16 16 -6 15 -8 -6 -24 -16 -12
-22 -24 -18 -35 9 -24 36 -21 30 4 -4 16 0 20 21 20 25 0 38 20 14 20 -7 1
-20 16 -29 35 -16 34 -16 35 3 35 11 0 18 5 15 13 -2 6 -12 11 -21 11 -13 -2
-14 1 -5 12 6 8 14 12 18 10 11 -7 133 -16 143 -10 5 3 4 12 -3 20 -9 11 -8
15 5 20 16 6 23 44 9 44 -10 0 -53 -51 -53 -62 0 -4 -13 -8 -29 -8 -24 0 -28
4 -24 19 3 11 14 22 25 24 11 3 17 10 13 16 -12 21 -33 11 -40 -19 -4 -16 -13
-30 -20 -30 -23 0 -18 97 6 121 24 24 25 75 2 88 -14 7 -15 12 -5 23 6 8 9 18
5 21 -3 4 3 7 15 7 15 0 20 -5 16 -15 -4 -8 1 -17 10 -21 9 -3 13 -10 10 -15
-3 -5 8 -9 25 -9 18 0 34 -7 40 -17 7 -13 13 -15 21 -7 13 13 -19 54 -44 54
-10 0 -16 9 -16 25 0 14 2 25 4 25 2 0 11 3 20 6 10 4 16 1 16 -9 0 -19 26
-41 34 -28 3 5 1 11 -5 13 -18 6 0 48 20 48 10 0 35 7 54 15 48 20 53 19 79
-10 25 -29 51 -34 41 -7 -4 9 -11 20 -16 23 -5 4 3 9 17 13 19 5 32 1 48 -14
16 -15 30 -19 50 -15 21 5 28 3 28 -9 0 -9 -5 -16 -11 -16 -5 0 3 -17 18 -37
24 -31 25 -36 8 -28 -11 4 -30 8 -42 8 -13 -1 -23 3 -23 8 0 5 -10 9 -22 9
l-21 0 23 -25 c29 -31 57 -40 75 -25 12 10 18 10 30 0 20 -17 31 -5 15 15 -8
9 -15 39 -17 68 -1 28 -8 56 -13 61 -6 6 -33 11 -60 11 -26 0 -52 3 -56 8 -4
4 8 7 27 7 45 0 63 12 55 38 -8 24 4 33 54 43 19 4 36 7 38 8 1 0 -2 -8 -8
-20z m88 -1 c-5 -15 -48 -24 -48 -10 0 14 12 22 33 22 10 0 17 -5 15 -12z m83
-9 c18 -34 23 -100 7 -94 -18 7 -37 53 -36 88 1 32 13 35 29 6z m-671 -13 c0
-3 -4 -8 -10 -11 -5 -3 -10 -1 -10 4 0 6 5 11 10 11 6 0 10 -2 10 -4z m30 -14
c0 -4 -5 -13 -12 -20 -8 -8 -6 -16 11 -29 l22 -18 -23 -14 c-13 -7 -20 -10
-16 -6 4 4 3 17 -2 30 -10 25 -3 65 11 65 5 0 9 -4 9 -8z m310 4 c0 -3 -4 -8
-10 -11 -5 -3 -10 -1 -10 4 0 6 5 11 10 11 6 0 10 -2 10 -4z m-260 -15 c0 -5
-7 -11 -14 -14 -10 -4 -13 -1 -9 9 6 15 23 19 23 5z m231 -24 c-1 -12 -15 -9
-19 4 -3 6 1 10 8 8 6 -3 11 -8 11 -12z m-201 -27 c0 -5 -5 -10 -11 -10 -5 0
-7 5 -4 10 3 6 8 10 11 10 2 0 4 -4 4 -10z m417 4 c-3 -3 -12 -4 -19 -1 -8 3
-5 6 6 6 11 1 17 -2 13 -5z m99 -21 c-10 -10 -19 5 -10 18 6 11 8 11 12 0 2
-7 1 -15 -2 -18z m-660 -152 c-12 -19 -24 -12 -19 10 4 13 9 17 15 11 6 -6 7
-15 4 -21z m634 19 c0 -5 7 -10 16 -10 18 0 16 -51 -2 -57 -20 -7 -66 40 -59
60 7 18 45 24 45 7z m-4155 -60 c3 -5 1 -10 -4 -10 -6 0 -11 5 -11 10 0 6 2
10 4 10 3 0 8 -4 11 -10z m4146 -22 c23 3 28 1 23 -11 -4 -12 -15 -14 -42 -10
-46 7 -48 9 -31 29 12 14 14 15 17 2 2 -10 12 -13 33 -10z m12562 -295 c33
-64 36 -77 34 -139 l-2 -69 -34 -3 c-31 -3 -41 4 -118 85 -47 48 -82 81 -79
73 79 -233 97 -320 97 -468 -1 -123 -15 -172 -51 -172 -27 0 -44 30 -80 145
-48 153 -60 182 -85 205 l-22 21 5 -183 c6 -241 -12 -328 -70 -328 -26 0 -37
34 -60 195 -11 77 -27 156 -36 175 l-15 35 -9 -105 c-13 -162 -44 -250 -88
-250 -9 0 -22 12 -29 26 -12 26 -36 161 -44 247 l-5 47 42 0 c22 1 55 7 71 15
l30 14 -40 -7 c-22 -3 -56 -7 -75 -7 l-35 0 -16 -95 c-16 -95 -40 -160 -60
-160 -22 0 -47 86 -53 183 -5 90 -10 107 -50 193 -25 52 -68 134 -95 184 -28
49 -51 92 -51 96 0 3 10 2 21 -1 14 -5 19 -3 15 3 -3 6 26 21 70 36 60 20 81
23 97 15 17 -9 19 -9 14 4 -5 12 7 20 51 32 31 9 98 30 147 46 50 15 144 44
210 63 66 19 140 43 165 55 l45 20 75 -78 c47 -48 90 -105 113 -148z m-13233
207 c0 -5 -5 -10 -11 -10 -5 0 -7 5 -4 10 3 6 8 10 11 10 2 0 4 -4 4 -10z
m-85 -148 c-3 -3 -11 0 -18 7 -9 10 -8 11 6 5 10 -3 15 -9 12 -12z"/>
<path d="M17700 7515 c0 -25 1 -25 90 -25 89 0 90 0 90 25 0 25 -1 25 -90 25
-89 0 -90 0 -90 -25z"/>
<path d="M17797 7342 c-23 -25 -21 -55 3 -77 16 -15 22 -15 35 -5 20 16 19 64
-1 84 -19 20 -17 20 -37 -2z"/>
<path d="M17980 7335 c-13 -34 -29 -166 -22 -185 8 -22 23 -30 58 -30 40 0 45
11 51 122 6 99 -2 118 -48 118 -22 0 -32 -6 -39 -25z"/>
<path d="M18178 7255 c-8 -19 -8 -31 0 -50 13 -28 47 -34 56 -9 24 62 -29 118
-56 59z"/>
<path d="M17765 7049 c-16 -25 7 -79 50 -117 50 -44 100 -62 174 -62 72 0 121
22 121 54 0 34 -26 46 -101 46 -45 0 -71 6 -95 21 -19 11 -34 24 -34 28 0 4
-13 14 -29 24 -33 19 -76 22 -86 6z"/>
<path d="M1526 7277 c-37 -21 -87 -89 -75 -101 3 -4 48 17 99 44 51 28 100 50
109 48 9 -2 -22 -23 -69 -47 -121 -62 -150 -81 -150 -97 0 -14 30 0 157 73
l42 24 -8 -28 c-5 -21 -26 -39 -77 -70 -41 -25 -76 -40 -86 -37 -31 9 -20 -17
26 -62 40 -40 48 -44 93 -44 55 0 101 24 137 73 16 22 21 43 21 92 0 35 -4 67
-8 71 -4 4 -20 1 -35 -8 -26 -16 -29 -16 -39 1 -10 15 -8 20 13 30 32 14 30
27 -6 46 -41 21 -99 18 -144 -8z"/>
<path d="M2005 7256 c-30 -13 -85 -69 -85 -86 0 -5 8 -7 18 -4 13 4 12 1 -5
-14 -29 -25 -31 -47 -4 -33 15 8 20 7 25 -5 8 -21 -1 -34 -25 -34 -43 0 -3
-99 51 -128 47 -24 115 3 150 61 15 24 20 50 20 101 0 81 -23 128 -72 145 -38
13 -36 13 -73 -3z m85 -21 c0 -2 -22 -16 -50 -30 -27 -14 -50 -21 -50 -15 0 5
17 18 38 29 36 19 62 26 62 16z m-3 -51 c0 -15 -87 -78 -95 -69 -10 10 13 46
41 64 39 25 54 26 54 5z"/>
<path d="M17251 5073 c-24 -30 -20 -58 11 -85 23 -21 41 -22 69 -8 25 14 24
26 -2 33 -25 7 -22 43 4 41 23 -2 22 23 -2 36 -32 17 -58 11 -80 -17z"/>
<path d="M17267 4923 c-19 -18 -47 -99 -47 -133 0 -43 10 -50 70 -50 62 0 75
43 42 135 -17 48 -45 69 -65 48z"/>
<path d="M17218 4505 c-15 -9 -32 -24 -38 -34 -10 -20 -33 -291 -25 -299 2 -3
44 -7 93 -10 l90 -5 8 119 c4 66 8 134 8 152 0 64 -79 109 -136 77z"/>
<path d="M17640 4244 c0 -8 5 -12 10 -9 6 3 10 10 10 16 0 5 -4 9 -10 9 -5 0
-10 -7 -10 -16z"/>
<path d="M4037 2913 c-13 -12 -7 -23 13 -23 13 0 18 5 14 15 -7 16 -17 19 -27
8z"/>
<path d="M3725 2789 c-11 -17 0 -20 21 -4 17 13 17 14 2 15 -9 0 -20 -5 -23
-11z"/>
<path d="M3806 2785 c-3 -9 0 -15 9 -15 16 0 20 16 6 24 -5 3 -11 -1 -15 -9z"/>
<path d="M3795 2720 c-4 -6 -4 -14 -1 -17 3 -3 1 -12 -5 -20 -9 -10 -5 -13 19
-13 22 0 31 6 35 21 4 16 11 20 26 16 12 -3 24 -1 27 4 3 5 -4 9 -14 9 -11 0
-33 3 -50 6 -18 4 -32 1 -37 -6z"/>
<path d="M3735 2710 c-3 -5 -1 -10 4 -10 6 0 11 5 11 10 0 6 -2 10 -4 10 -3 0
-8 -4 -11 -10z"/>
<path d="M3880 2670 c0 -5 5 -10 11 -10 5 0 7 5 4 10 -3 6 -8 10 -11 10 -2 0
-4 -4 -4 -10z"/>
<path d="M4020 2670 c0 -5 7 -10 16 -10 8 0 12 5 9 10 -3 6 -10 10 -16 10 -5
0 -9 -4 -9 -10z"/>
<path d="M3718 2664 c-14 -13 6 -44 28 -44 28 0 31 12 8 34 -16 17 -27 20 -36
10z"/>
<path d="M3630 2640 c-12 -7 -8 -10 14 -10 16 0 38 -7 48 -17 10 -9 18 -12 18
-7 0 8 -51 44 -62 44 -1 0 -10 -5 -18 -10z"/>
<path d="M3580 2625 c-10 -12 -9 -16 5 -21 22 -9 37 8 20 23 -10 10 -16 9 -25
-2z"/>
<path d="M3887 2634 c-9 -10 2 -24 19 -24 8 0 14 7 14 15 0 15 -21 21 -33 9z"/>
<path d="M3638 2603 c6 -2 18 -2 25 0 6 3 1 5 -13 5 -14 0 -19 -2 -12 -5z"/>
<path d="M3895 2550 c3 -5 8 -10 11 -10 2 0 4 5 4 10 0 6 -5 10 -11 10 -5 0
-7 -4 -4 -10z"/>
<path d="M3721 2541 c-25 -7 -43 -38 -33 -56 4 -5 7 -16 7 -24 0 -27 25 -24
25 4 0 15 4 24 10 20 15 -9 80 14 80 28 0 7 -5 19 -10 27 -9 13 -10 13 -11 0
-1 -8 -1 -18 -1 -21 1 -4 -8 -9 -18 -12 -11 -3 -20 -1 -20 4 0 5 5 9 10 9 6 0
10 7 10 15 0 16 -10 17 -49 6z"/>
<path d="M4036 2516 c5 -21 2 -27 -21 -36 -37 -14 -48 -13 -41 5 6 17 -29 22
-39 5 -3 -5 -19 -10 -36 -10 -19 0 -29 -5 -29 -15 0 -8 7 -15 15 -15 8 0 15 5
15 10 0 18 19 10 25 -11 5 -16 10 -18 20 -9 8 6 24 10 36 8 26 -4 39 -28 15
-28 -9 0 -16 -5 -16 -11 0 -7 8 -9 23 -4 12 4 40 9 61 11 49 5 62 16 61 51 0
20 -5 28 -18 28 -10 0 -21 5 -25 11 -4 6 -17 16 -30 23 -21 11 -22 10 -16 -13z
m44 -36 c0 -5 -4 -10 -9 -10 -6 0 -13 5 -16 10 -3 6 1 10 9 10 9 0 16 -4 16
-10z"/>
<path d="M3847 2523 c-12 -11 -8 -21 13 -26 22 -6 23 -5 14 17 -7 17 -16 20
-27 9z"/>
<path d="M3592 2421 c-11 -6 -10 -11 3 -25 19 -18 31 -20 40 -6 3 6 -1 10 -11
10 -13 0 -14 3 -4 15 10 12 10 15 -1 15 -8 0 -20 -4 -27 -9z"/>
<path d="M3680 2409 c0 -5 5 -7 10 -4 6 3 10 8 10 11 0 2 -4 4 -10 4 -5 0 -10
-5 -10 -11z"/>
<path d="M3737 2379 c-4 -15 -1 -19 10 -17 22 4 27 24 9 31 -8 3 -16 -2 -19
-14z"/>
<path d="M3805 2380 c3 -5 15 -10 27 -10 14 0 18 -5 14 -15 -7 -18 3 -19 27
-1 21 16 23 30 2 23 -8 -4 -17 -2 -20 3 -4 6 -17 10 -31 10 -14 0 -22 -4 -19
-10z"/>
<path d="M3940 2360 c0 -5 5 -10 10 -10 6 0 10 5 10 10 0 6 -4 10 -10 10 -5 0
-10 -4 -10 -10z"/>
<path d="M4026 2362 c-6 -10 4 -52 13 -52 3 0 6 14 6 30 0 29 -8 39 -19 22z"/>
<path d="M3610 2310 c-8 -5 -11 -12 -7 -16 4 -4 13 -2 19 4 15 15 7 24 -12 12z"/>
<path d="M3474 2273 c-4 -10 -9 -30 -11 -45 -2 -23 1 -28 18 -28 22 0 22 9 4
53 -5 12 -2 17 9 17 9 0 16 5 16 10 0 17 -27 11 -36 -7z"/>
<path d="M3575 2260 c3 -5 10 -10 16 -10 5 0 9 5 9 10 0 6 -7 10 -16 10 -8 0
-12 -4 -9 -10z"/>
<path d="M3360 2240 c0 -5 5 -10 10 -10 6 0 10 5 10 10 0 6 -4 10 -10 10 -5 0
-10 -4 -10 -10z"/>
<path d="M3690 2209 c0 -6 9 -13 21 -16 13 -4 18 -11 14 -21 -4 -11 -2 -12 7
-4 7 5 22 12 33 14 16 4 13 8 -17 21 -44 20 -58 21 -58 6z"/>
<path d="M3379 2201 c12 -8 12 -12 2 -25 -7 -8 -10 -20 -6 -26 3 -5 -1 -10 -9
-10 -9 0 -16 -7 -16 -15 0 -23 27 -6 49 31 20 33 20 34 1 44 -23 12 -40 13
-21 1z"/>
<path d="M4020 2180 c0 -5 5 -10 10 -10 6 0 10 5 10 10 0 6 -4 10 -10 10 -5 0
-10 -4 -10 -10z"/>
<path d="M3774 2149 c-2 -4 3 -13 12 -20 13 -10 17 -10 24 0 4 8 16 11 29 6
11 -3 21 -2 21 3 0 11 -79 21 -86 11z"/>
<path d="M3690 2100 c0 -5 7 -10 16 -10 8 0 12 5 9 10 -3 6 -10 10 -16 10 -5
0 -9 -4 -9 -10z"/>
<path d="M3755 2099 c-8 -13 2 -59 14 -59 4 0 14 12 21 26 12 22 12 27 0 34
-19 13 -27 12 -35 -1z"/>
<path d="M3958 2083 c-10 -2 -32 -18 -49 -34 -25 -23 -29 -33 -20 -42 9 -9 13
-7 17 10 4 12 15 25 25 28 10 4 19 11 19 16 0 17 54 9 76 -12 12 -12 24 -16
28 -11 5 8 -68 56 -77 51 -1 -1 -10 -3 -19 -6z"/>
<path d="M3555 2060 c-3 -5 1 -10 10 -10 9 0 13 5 10 10 -3 6 -8 10 -10 10 -2
0 -7 -4 -10 -10z"/>
<path d="M4116 2045 c3 -7 -7 -18 -25 -26 -17 -8 -31 -17 -31 -21 0 -9 27 0
56 19 11 7 23 11 25 8 3 -2 5 4 6 13 1 11 -6 18 -17 19 -12 1 -17 -3 -14 -12z"/>
<path d="M3355 2042 c-49 -6 -49 -19 1 -31 53 -13 62 -10 43 16 -10 12 -24 17
-44 15z"/>
<path d="M3560 2010 c0 -6 7 -10 15 -10 8 0 15 2 15 4 0 2 -7 6 -15 10 -8 3
-15 1 -15 -4z"/>
<path d="M3773 1916 c-28 -6 -55 -15 -60 -20 -12 -13 88 4 117 20 29 15 15 16
-57 0z"/>
<path d="M3830 1869 c0 -5 5 -7 10 -4 6 3 10 8 10 11 0 2 -4 4 -10 4 -5 0 -10
-5 -10 -11z"/>
<path d="M3520 1755 c12 -15 30 -12 30 6 0 5 -10 9 -21 9 -18 0 -19 -2 -9 -15z"/>
<path d="M3730 1740 c19 -13 30 -13 30 0 0 6 -10 10 -22 10 -19 0 -20 -2 -8
-10z"/>
<path d="M3910 1730 c0 -5 5 -10 10 -10 6 0 10 5 10 10 0 6 -4 10 -10 10 -5 0
-10 -4 -10 -10z"/>
<path d="M3518 1663 c7 -3 16 -2 19 1 4 3 -2 6 -13 5 -11 0 -14 -3 -6 -6z"/>
<path d="M3768 1623 c7 -3 16 -2 19 1 4 3 -2 6 -13 5 -11 0 -14 -3 -6 -6z"/>
<path d="M3935 1620 c-3 -5 -1 -10 4 -10 6 0 11 5 11 10 0 6 -2 10 -4 10 -3 0
-8 -4 -11 -10z"/>
<path d="M16040 2270 c0 -5 5 -10 10 -10 6 0 10 5 10 10 0 6 -4 10 -10 10 -5
0 -10 -4 -10 -10z"/>
<path d="M15860 2250 c0 -13 11 -13 30 0 12 8 11 10 -7 10 -13 0 -23 -4 -23
-10z"/>
<path d="M15930 2214 c0 -14 3 -14 15 -4 8 7 15 14 15 16 0 2 -7 4 -15 4 -8 0
-15 -7 -15 -16z"/>
<path d="M16480 2053 c-44 -28 -49 -33 -26 -28 33 7 86 41 86 56 0 11 5 13
-60 -28z"/>
<path d="M16298 1936 c-65 -24 -87 -41 -43 -31 44 9 105 37 105 47 0 4 -1 7
-2 7 -2 -1 -29 -11 -60 -23z"/>
<path d="M15938 1849 c15 -5 36 -6 55 0 29 8 27 9 -23 9 -44 1 -50 -1 -32 -9z"/>
<path d="M17910 5219 c-14 -5 -28 -16 -33 -24 -4 -8 -14 -12 -22 -9 -8 4 -15
2 -15 -3 0 -10 121 -23 210 -23 66 0 113 -16 146 -50 16 -16 32 -30 35 -30 4
0 9 15 13 32 7 36 -6 51 -74 87 -43 23 -221 37 -260 20z"/>
<path d="M17706 5108 c-17 -64 12 -130 67 -153 33 -14 328 -40 381 -33 24 2
32 10 43 42 12 35 11 43 -5 75 -28 54 -62 68 -184 75 l-107 7 6 -36 c7 -45
-12 -46 -27 -1 -12 37 -35 46 -120 46 -41 0 -49 -3 -54 -22z"/>
<path d="M18261 5075 c-6 -22 -11 -68 -11 -102 0 -55 2 -63 19 -63 11 0 27 -3
37 -7 16 -6 17 0 11 65 -3 39 -14 87 -25 108 l-20 39 -11 -40z"/>
<path d="M17897 4510 c-3 -11 0 -23 6 -27 7 -3 9 -3 5 2 -4 4 -3 14 3 21 6 7
6 15 1 18 -6 3 -12 -3 -15 -14z"/>
<path d="M0 2410 c0 -11 7 -20 15 -20 13 0 14 4 5 20 -6 11 -13 20 -15 20 -3
0 -5 -9 -5 -20z"/>
<path d="M60 2416 c0 -9 40 -13 46 -5 3 5 -6 9 -20 9 -14 0 -26 -2 -26 -4z"/>
<path d="M200 2389 c0 -5 5 -7 10 -4 6 3 10 8 10 11 0 2 -4 4 -10 4 -5 0 -10
-5 -10 -11z"/>
<path d="M411 2391 c-7 -5 -11 -13 -7 -19 3 -6 2 -12 -4 -14 -6 -2 -2 -8 8
-15 14 -8 19 -8 19 0 0 7 3 22 7 35 8 23 0 28 -23 13z"/>
<path d="M37 2367 c-4 -10 2 -13 19 -9 13 2 24 8 24 13 0 14 -37 10 -43 -4z"/>
<path d="M0 2345 c0 -15 4 -24 10 -20 5 3 10 12 10 20 0 8 -4 17 -10 20 -6 4
-10 -5 -10 -20z"/>
<path d="M197 2363 c-9 -3 -15 -9 -12 -14 4 -5 2 -9 -3 -9 -5 0 -9 -7 -9 -15
0 -18 9 -19 25 -3 9 9 15 9 24 0 9 -9 9 -12 0 -12 -7 0 -12 -4 -12 -10 0 -5
14 -10 30 -10 37 0 37 6 2 46 -16 19 -34 29 -45 27z"/>
<path d="M44 2325 c-4 -8 -12 -15 -20 -15 -19 0 -18 -29 4 -72 19 -36 19 -36
-5 -53 -36 -28 -26 -53 19 -46 4 0 4 -7 1 -16 -5 -13 -2 -15 11 -10 10 4 25 7
34 7 23 0 47 39 33 53 -7 7 -16 6 -29 -6 -10 -9 -22 -17 -25 -17 -10 0 -4 54
7 62 6 4 -1 16 -17 28 -31 25 -34 38 -10 55 14 10 20 10 32 -2 13 -14 13 -17
-4 -29 -16 -12 -17 -14 -2 -20 10 -3 29 -3 45 1 25 6 25 8 9 19 -9 7 -17 23
-17 35 0 14 -6 21 -20 21 -11 0 -20 5 -20 10 0 16 -20 12 -26 -5z"/>
<path d="M570 2320 c0 -5 4 -10 9 -10 6 0 13 5 16 10 3 6 -1 10 -9 10 -9 0
-16 -4 -16 -10z"/>
<path d="M407 2283 c-4 -3 -7 -11 -7 -17 0 -6 5 -5 12 2 6 6 9 14 7 17 -3 3
-9 2 -12 -2z"/>
<path d="M252 2248 c-7 -7 -12 -17 -12 -24 0 -15 -23 -24 -61 -24 -32 0 -37
-14 -14 -44 12 -16 12 -21 -8 -36 -22 -18 -21 -18 16 -7 33 11 37 16 37 44 0
18 5 33 10 33 6 0 10 -9 10 -20 0 -11 4 -20 10 -20 5 0 8 -14 6 -30 -2 -17 1
-33 5 -36 5 -3 7 -10 4 -15 -4 -5 1 -9 9 -9 9 0 16 5 16 10 0 6 5 10 11 10 6
0 9 -7 6 -15 -4 -8 -2 -17 3 -20 15 -9 31 5 23 18 -4 7 -6 20 -5 30 2 10 -3
17 -12 17 -14 0 -20 11 -18 31 1 4 -6 6 -15 5 -9 0 -18 5 -20 12 -3 7 4 12 16
12 25 0 27 13 6 30 -14 12 -14 15 0 30 22 25 1 42 -23 18z"/>
<path d="M95 2200 c-3 -5 1 -10 10 -10 9 0 13 5 10 10 -3 6 -8 10 -10 10 -2 0
-7 -4 -10 -10z"/>
<path d="M545 2200 c3 -5 13 -10 21 -10 8 0 12 5 9 10 -3 6 -13 10 -21 10 -8
0 -12 -4 -9 -10z"/>
<path d="M175 2077 c4 -14 2 -28 -4 -32 -14 -8 -4 -25 15 -25 8 0 14 7 14 15
0 17 16 20 25 5 11 -18 20 -11 20 15 0 17 -5 25 -18 25 -10 0 -27 5 -38 11
-18 9 -19 7 -14 -14z"/>
<path d="M0 2036 l0 -44 46 -7 46 -7 -28 -29 c-31 -33 -31 -34 13 -43 41 -9
54 11 22 35 -20 15 -21 19 -6 19 9 0 17 5 17 10 0 6 15 10 33 9 17 0 25 -3 17
-6 -25 -10 -30 -26 -12 -40 22 -16 43 -16 65 1 16 12 16 17 5 35 -7 12 -21 21
-30 21 -10 0 -18 4 -18 9 0 5 -9 7 -20 4 -20 -5 -28 11 -11 21 5 3 11 15 14
26 5 19 2 20 -59 16 -35 -3 -66 -1 -69 5 -14 22 -25 6 -25 -35z m187 -92 c-3
-3 -12 -4 -19 -1 -8 3 -5 6 6 6 11 1 17 -2 13 -5z"/>
<path d="M398 2007 c-32 -23 -57 -45 -58 -50 0 -13 74 30 99 57 39 41 21 38
-41 -7z"/>
<path d="M272 1949 c2 -6 8 -10 13 -10 5 0 11 4 13 10 2 6 -4 11 -13 11 -9 0
-15 -5 -13 -11z"/>
<path d="M338 1939 c-8 -6 -1 -9 20 -9 17 0 32 -5 32 -11 0 -13 30 -8 33 6 3
13 -68 24 -85 14z"/>
<path d="M15 1890 c4 -6 11 -8 16 -5 14 9 11 15 -7 15 -8 0 -12 -5 -9 -10z"/>
<path d="M240 1885 c25 -14 25 -14 -33 -39 -51 -23 -56 -28 -43 -41 21 -21 46
-19 46 5 0 11 5 20 11 20 6 0 25 10 41 22 29 20 30 22 12 35 -10 7 -27 13 -38
13 -19 -1 -19 -2 4 -15z"/>
<path d="M100 1881 c0 -6 4 -12 9 -16 5 -3 -1 -17 -15 -32 -25 -27 -26 -37 -3
-28 22 8 41 44 34 66 -6 19 -25 27 -25 10z"/>
<path d="M220 1811 c0 -6 8 -11 18 -11 14 0 15 -2 2 -10 -13 -8 -13 -10 1 -10
9 0 22 7 29 15 10 12 10 15 -3 15 -8 0 -22 3 -31 6 -9 3 -16 1 -16 -5z"/>
<path d="M500 1779 c0 -5 5 -7 10 -4 6 3 10 8 10 11 0 2 -4 4 -10 4 -5 0 -10
-5 -10 -11z"/>
<path d="M516 1632 c-3 -5 6 -15 20 -22 20 -11 26 -11 37 0 10 10 9 12 -5 7
-10 -3 -24 0 -32 9 -8 8 -17 10 -20 6z"/>
<path d="M0 1599 c0 -5 5 -7 10 -4 5 3 10 8 10 11 0 2 -4 4 -10 4 -5 0 -10 -5
-10 -11z"/>
<path d="M73 1558 c-4 -7 -8 -28 -8 -45 0 -36 22 -45 44 -19 9 11 8 15 -5 20
-13 5 -14 9 -4 21 12 14 6 35 -10 35 -5 0 -12 -6 -17 -12z"/>
<path d="M30 1530 c0 -5 5 -10 11 -10 5 0 7 5 4 10 -3 6 -8 10 -11 10 -2 0 -4
-4 -4 -10z"/>
<path d="M306 1405 c4 -8 8 -15 10 -15 2 0 4 7 4 15 0 8 -4 15 -10 15 -5 0 -7
-7 -4 -15z"/>
</g>
</svg>
